<mxfile host="app.diagrams.net" modified="2024-06-19T00:22:31.261Z" agent="Mozilla/5.0 (Windows NT 10.0; Win64; x64) AppleWebKit/537.36 (KHTML, like Gecko) Chrome/126.0.0.0 Safari/537.36" etag="9QaDXRUBNivm7KoM65EK" version="24.5.5" type="device">
  <diagram name="Страница — 1" id="R9V8dsPeqVM1okqB5-5_">
    <mxGraphModel dx="880" dy="434" grid="1" gridSize="10" guides="1" tooltips="1" connect="1" arrows="1" fold="1" page="1" pageScale="1" pageWidth="827" pageHeight="1169" math="0" shadow="0">
      <root>
        <mxCell id="0" />
        <mxCell id="1" parent="0" />
        <mxCell id="Bw6eXNRRDr9AI6nDFW1N-1" value="" style="ellipse;html=1;shape=startState;fillColor=#000000;strokeColor=#ff0000;" vertex="1" parent="1">
          <mxGeometry x="400" y="180" width="30" height="30" as="geometry" />
        </mxCell>
        <mxCell id="Bw6eXNRRDr9AI6nDFW1N-2" value="" style="edgeStyle=orthogonalEdgeStyle;html=1;verticalAlign=bottom;endArrow=open;endSize=8;strokeColor=#ff0000;rounded=0;" edge="1" source="Bw6eXNRRDr9AI6nDFW1N-1" parent="1">
          <mxGeometry relative="1" as="geometry">
            <mxPoint x="415" y="270" as="targetPoint" />
          </mxGeometry>
        </mxCell>
        <mxCell id="Bw6eXNRRDr9AI6nDFW1N-5" style="edgeStyle=orthogonalEdgeStyle;rounded=0;orthogonalLoop=1;jettySize=auto;html=1;exitX=1;exitY=0.5;exitDx=0;exitDy=0;entryX=0.5;entryY=0;entryDx=0;entryDy=0;endArrow=open;endFill=0;" edge="1" parent="1" source="Bw6eXNRRDr9AI6nDFW1N-3" target="Bw6eXNRRDr9AI6nDFW1N-4">
          <mxGeometry relative="1" as="geometry" />
        </mxCell>
        <mxCell id="Bw6eXNRRDr9AI6nDFW1N-8" style="edgeStyle=orthogonalEdgeStyle;rounded=0;orthogonalLoop=1;jettySize=auto;html=1;exitX=0.5;exitY=1;exitDx=0;exitDy=0;entryX=0.5;entryY=0;entryDx=0;entryDy=0;endArrow=open;endFill=0;" edge="1" parent="1" source="Bw6eXNRRDr9AI6nDFW1N-3" target="Bw6eXNRRDr9AI6nDFW1N-7">
          <mxGeometry relative="1" as="geometry" />
        </mxCell>
        <mxCell id="Bw6eXNRRDr9AI6nDFW1N-3" value="" style="rhombus;whiteSpace=wrap;html=1;" vertex="1" parent="1">
          <mxGeometry x="392.5" y="270" width="45" height="30" as="geometry" />
        </mxCell>
        <mxCell id="Bw6eXNRRDr9AI6nDFW1N-4" value="" style="ellipse;html=1;shape=endState;fillColor=#000000;strokeColor=#ff0000;" vertex="1" parent="1">
          <mxGeometry x="590" y="380" width="30" height="30" as="geometry" />
        </mxCell>
        <mxCell id="Bw6eXNRRDr9AI6nDFW1N-6" value="Закрыть записную книжку" style="text;html=1;align=center;verticalAlign=middle;resizable=0;points=[];autosize=1;strokeColor=none;fillColor=none;" vertex="1" parent="1">
          <mxGeometry x="430" y="260" width="170" height="30" as="geometry" />
        </mxCell>
        <mxCell id="Bw6eXNRRDr9AI6nDFW1N-10" style="edgeStyle=orthogonalEdgeStyle;rounded=0;orthogonalLoop=1;jettySize=auto;html=1;exitX=0.5;exitY=1;exitDx=0;exitDy=0;entryX=0.5;entryY=0;entryDx=0;entryDy=0;endArrow=open;endFill=0;" edge="1" parent="1" source="Bw6eXNRRDr9AI6nDFW1N-7" target="Bw6eXNRRDr9AI6nDFW1N-9">
          <mxGeometry relative="1" as="geometry" />
        </mxCell>
        <mxCell id="Bw6eXNRRDr9AI6nDFW1N-7" value="Выбор действия" style="html=1;whiteSpace=wrap;" vertex="1" parent="1">
          <mxGeometry x="359" y="330" width="110" height="30" as="geometry" />
        </mxCell>
        <mxCell id="Bw6eXNRRDr9AI6nDFW1N-11" style="edgeStyle=orthogonalEdgeStyle;rounded=0;orthogonalLoop=1;jettySize=auto;html=1;exitX=1;exitY=0.5;exitDx=0;exitDy=0;entryX=0;entryY=0.5;entryDx=0;entryDy=0;endArrow=open;endFill=0;" edge="1" parent="1" source="Bw6eXNRRDr9AI6nDFW1N-9" target="Bw6eXNRRDr9AI6nDFW1N-4">
          <mxGeometry relative="1" as="geometry" />
        </mxCell>
        <mxCell id="Bw6eXNRRDr9AI6nDFW1N-20" style="rounded=0;orthogonalLoop=1;jettySize=auto;html=1;exitX=0;exitY=1;exitDx=0;exitDy=0;entryX=0.5;entryY=0;entryDx=0;entryDy=0;endArrow=open;endFill=0;" edge="1" parent="1" source="Bw6eXNRRDr9AI6nDFW1N-9" target="Bw6eXNRRDr9AI6nDFW1N-13">
          <mxGeometry relative="1" as="geometry" />
        </mxCell>
        <mxCell id="Bw6eXNRRDr9AI6nDFW1N-21" style="rounded=0;orthogonalLoop=1;jettySize=auto;html=1;exitX=0;exitY=1;exitDx=0;exitDy=0;entryX=0.5;entryY=0;entryDx=0;entryDy=0;endArrow=open;endFill=0;" edge="1" parent="1" source="Bw6eXNRRDr9AI6nDFW1N-9" target="Bw6eXNRRDr9AI6nDFW1N-14">
          <mxGeometry relative="1" as="geometry" />
        </mxCell>
        <mxCell id="Bw6eXNRRDr9AI6nDFW1N-22" style="rounded=0;orthogonalLoop=1;jettySize=auto;html=1;exitX=0.5;exitY=1;exitDx=0;exitDy=0;entryX=0.5;entryY=0;entryDx=0;entryDy=0;endArrow=open;endFill=0;" edge="1" parent="1" source="Bw6eXNRRDr9AI6nDFW1N-9" target="Bw6eXNRRDr9AI6nDFW1N-15">
          <mxGeometry relative="1" as="geometry" />
        </mxCell>
        <mxCell id="Bw6eXNRRDr9AI6nDFW1N-23" style="rounded=0;orthogonalLoop=1;jettySize=auto;html=1;exitX=0.5;exitY=1;exitDx=0;exitDy=0;entryX=0.5;entryY=0;entryDx=0;entryDy=0;endArrow=open;endFill=0;" edge="1" parent="1" source="Bw6eXNRRDr9AI6nDFW1N-9" target="Bw6eXNRRDr9AI6nDFW1N-16">
          <mxGeometry relative="1" as="geometry" />
        </mxCell>
        <mxCell id="Bw6eXNRRDr9AI6nDFW1N-25" style="rounded=0;orthogonalLoop=1;jettySize=auto;html=1;exitX=0.5;exitY=1;exitDx=0;exitDy=0;entryX=0.5;entryY=0;entryDx=0;entryDy=0;endArrow=open;endFill=0;" edge="1" parent="1" source="Bw6eXNRRDr9AI6nDFW1N-9" target="Bw6eXNRRDr9AI6nDFW1N-17">
          <mxGeometry relative="1" as="geometry" />
        </mxCell>
        <mxCell id="Bw6eXNRRDr9AI6nDFW1N-26" style="rounded=0;orthogonalLoop=1;jettySize=auto;html=1;exitX=1;exitY=1;exitDx=0;exitDy=0;entryX=0.5;entryY=0;entryDx=0;entryDy=0;endArrow=open;endFill=0;" edge="1" parent="1" source="Bw6eXNRRDr9AI6nDFW1N-9" target="Bw6eXNRRDr9AI6nDFW1N-18">
          <mxGeometry relative="1" as="geometry" />
        </mxCell>
        <mxCell id="Bw6eXNRRDr9AI6nDFW1N-27" style="rounded=0;orthogonalLoop=1;jettySize=auto;html=1;exitX=1;exitY=1;exitDx=0;exitDy=0;entryX=0.5;entryY=0;entryDx=0;entryDy=0;endArrow=open;endFill=0;" edge="1" parent="1" source="Bw6eXNRRDr9AI6nDFW1N-9" target="Bw6eXNRRDr9AI6nDFW1N-19">
          <mxGeometry relative="1" as="geometry" />
        </mxCell>
        <mxCell id="Bw6eXNRRDr9AI6nDFW1N-9" value="" style="rhombus;whiteSpace=wrap;html=1;" vertex="1" parent="1">
          <mxGeometry x="391.5" y="380" width="45" height="30" as="geometry" />
        </mxCell>
        <mxCell id="Bw6eXNRRDr9AI6nDFW1N-12" value="Закрыть записную книжку" style="text;html=1;align=center;verticalAlign=middle;resizable=0;points=[];autosize=1;strokeColor=none;fillColor=none;" vertex="1" parent="1">
          <mxGeometry x="420" y="370" width="170" height="30" as="geometry" />
        </mxCell>
        <mxCell id="Bw6eXNRRDr9AI6nDFW1N-35" style="rounded=0;orthogonalLoop=1;jettySize=auto;html=1;exitX=0.5;exitY=1;exitDx=0;exitDy=0;entryX=0;entryY=0;entryDx=0;entryDy=0;endArrow=open;endFill=0;" edge="1" parent="1" source="Bw6eXNRRDr9AI6nDFW1N-13" target="Bw6eXNRRDr9AI6nDFW1N-28">
          <mxGeometry relative="1" as="geometry" />
        </mxCell>
        <mxCell id="Bw6eXNRRDr9AI6nDFW1N-13" value="Создать запись" style="html=1;whiteSpace=wrap;" vertex="1" parent="1">
          <mxGeometry x="80" y="490" width="60" height="40" as="geometry" />
        </mxCell>
        <mxCell id="Bw6eXNRRDr9AI6nDFW1N-34" style="rounded=0;orthogonalLoop=1;jettySize=auto;html=1;exitX=0.5;exitY=1;exitDx=0;exitDy=0;entryX=0;entryY=0;entryDx=0;entryDy=0;endArrow=open;endFill=0;" edge="1" parent="1" source="Bw6eXNRRDr9AI6nDFW1N-14" target="Bw6eXNRRDr9AI6nDFW1N-28">
          <mxGeometry relative="1" as="geometry" />
        </mxCell>
        <mxCell id="Bw6eXNRRDr9AI6nDFW1N-14" value="Редактировать запись" style="html=1;whiteSpace=wrap;" vertex="1" parent="1">
          <mxGeometry x="170" y="490" width="101" height="40" as="geometry" />
        </mxCell>
        <mxCell id="Bw6eXNRRDr9AI6nDFW1N-29" style="rounded=0;orthogonalLoop=1;jettySize=auto;html=1;exitX=0.5;exitY=1;exitDx=0;exitDy=0;entryX=0.5;entryY=0;entryDx=0;entryDy=0;endArrow=open;endFill=0;" edge="1" parent="1" source="Bw6eXNRRDr9AI6nDFW1N-15" target="Bw6eXNRRDr9AI6nDFW1N-28">
          <mxGeometry relative="1" as="geometry" />
        </mxCell>
        <mxCell id="Bw6eXNRRDr9AI6nDFW1N-15" value="Удалить запись" style="html=1;whiteSpace=wrap;" vertex="1" parent="1">
          <mxGeometry x="290" y="490" width="70" height="40" as="geometry" />
        </mxCell>
        <mxCell id="Bw6eXNRRDr9AI6nDFW1N-30" style="rounded=0;orthogonalLoop=1;jettySize=auto;html=1;exitX=0.5;exitY=1;exitDx=0;exitDy=0;entryX=0.5;entryY=0;entryDx=0;entryDy=0;endArrow=open;endFill=0;" edge="1" parent="1" source="Bw6eXNRRDr9AI6nDFW1N-16" target="Bw6eXNRRDr9AI6nDFW1N-28">
          <mxGeometry relative="1" as="geometry" />
        </mxCell>
        <mxCell id="Bw6eXNRRDr9AI6nDFW1N-16" value="Поиск записей" style="html=1;whiteSpace=wrap;" vertex="1" parent="1">
          <mxGeometry x="380" y="490" width="60" height="40" as="geometry" />
        </mxCell>
        <mxCell id="Bw6eXNRRDr9AI6nDFW1N-31" style="rounded=0;orthogonalLoop=1;jettySize=auto;html=1;exitX=0.5;exitY=1;exitDx=0;exitDy=0;entryX=0.5;entryY=0;entryDx=0;entryDy=0;endArrow=open;endFill=0;" edge="1" parent="1" source="Bw6eXNRRDr9AI6nDFW1N-17" target="Bw6eXNRRDr9AI6nDFW1N-28">
          <mxGeometry relative="1" as="geometry" />
        </mxCell>
        <mxCell id="Bw6eXNRRDr9AI6nDFW1N-17" value="Упорядочить&lt;div&gt;записи&lt;/div&gt;" style="html=1;whiteSpace=wrap;" vertex="1" parent="1">
          <mxGeometry x="460" y="490" width="90" height="40" as="geometry" />
        </mxCell>
        <mxCell id="Bw6eXNRRDr9AI6nDFW1N-32" style="rounded=0;orthogonalLoop=1;jettySize=auto;html=1;exitX=0.5;exitY=1;exitDx=0;exitDy=0;entryX=1;entryY=0;entryDx=0;entryDy=0;endArrow=open;endFill=0;" edge="1" parent="1" source="Bw6eXNRRDr9AI6nDFW1N-18" target="Bw6eXNRRDr9AI6nDFW1N-28">
          <mxGeometry relative="1" as="geometry" />
        </mxCell>
        <mxCell id="Bw6eXNRRDr9AI6nDFW1N-18" value="Сохранить&lt;div&gt;записи&lt;/div&gt;" style="html=1;whiteSpace=wrap;" vertex="1" parent="1">
          <mxGeometry x="570" y="490" width="110" height="40" as="geometry" />
        </mxCell>
        <mxCell id="Bw6eXNRRDr9AI6nDFW1N-33" style="rounded=0;orthogonalLoop=1;jettySize=auto;html=1;exitX=0.5;exitY=1;exitDx=0;exitDy=0;entryX=1;entryY=0;entryDx=0;entryDy=0;endArrow=open;endFill=0;" edge="1" parent="1" source="Bw6eXNRRDr9AI6nDFW1N-19" target="Bw6eXNRRDr9AI6nDFW1N-28">
          <mxGeometry relative="1" as="geometry" />
        </mxCell>
        <mxCell id="Bw6eXNRRDr9AI6nDFW1N-19" value="Загрузить файл&lt;div&gt;записей&lt;/div&gt;" style="html=1;whiteSpace=wrap;" vertex="1" parent="1">
          <mxGeometry x="700" y="490" width="110" height="40" as="geometry" />
        </mxCell>
        <mxCell id="Bw6eXNRRDr9AI6nDFW1N-36" style="edgeStyle=orthogonalEdgeStyle;rounded=0;orthogonalLoop=1;jettySize=auto;html=1;exitX=0;exitY=0.5;exitDx=0;exitDy=0;entryX=0;entryY=0.5;entryDx=0;entryDy=0;endArrow=open;endFill=0;" edge="1" parent="1" source="Bw6eXNRRDr9AI6nDFW1N-28" target="Bw6eXNRRDr9AI6nDFW1N-9">
          <mxGeometry relative="1" as="geometry">
            <Array as="points">
              <mxPoint x="60" y="635" />
              <mxPoint x="60" y="395" />
            </Array>
          </mxGeometry>
        </mxCell>
        <mxCell id="Bw6eXNRRDr9AI6nDFW1N-28" value="" style="rhombus;whiteSpace=wrap;html=1;" vertex="1" parent="1">
          <mxGeometry x="391.5" y="620" width="45" height="30" as="geometry" />
        </mxCell>
        <mxCell id="Bw6eXNRRDr9AI6nDFW1N-37" value="Создать" style="text;html=1;align=center;verticalAlign=middle;resizable=0;points=[];autosize=1;strokeColor=none;fillColor=none;" vertex="1" parent="1">
          <mxGeometry x="160" y="430" width="70" height="30" as="geometry" />
        </mxCell>
        <mxCell id="Bw6eXNRRDr9AI6nDFW1N-38" value="Изменить" style="text;html=1;align=center;verticalAlign=middle;resizable=0;points=[];autosize=1;strokeColor=none;fillColor=none;" vertex="1" parent="1">
          <mxGeometry x="215" y="450" width="80" height="30" as="geometry" />
        </mxCell>
        <mxCell id="Bw6eXNRRDr9AI6nDFW1N-39" value="Удалить" style="text;html=1;align=center;verticalAlign=middle;resizable=0;points=[];autosize=1;strokeColor=none;fillColor=none;" vertex="1" parent="1">
          <mxGeometry x="310" y="450" width="70" height="30" as="geometry" />
        </mxCell>
        <mxCell id="Bw6eXNRRDr9AI6nDFW1N-42" value="Отобрать" style="text;html=1;align=center;verticalAlign=middle;resizable=0;points=[];autosize=1;strokeColor=none;fillColor=none;" vertex="1" parent="1">
          <mxGeometry x="374" y="450" width="80" height="30" as="geometry" />
        </mxCell>
        <mxCell id="Bw6eXNRRDr9AI6nDFW1N-43" value="Упорядочить" style="text;html=1;align=center;verticalAlign=middle;resizable=0;points=[];autosize=1;strokeColor=none;fillColor=none;" vertex="1" parent="1">
          <mxGeometry x="445" y="448" width="90" height="30" as="geometry" />
        </mxCell>
        <mxCell id="Bw6eXNRRDr9AI6nDFW1N-44" value="Файл - Сохранить" style="text;html=1;align=center;verticalAlign=middle;resizable=0;points=[];autosize=1;strokeColor=none;fillColor=none;" vertex="1" parent="1">
          <mxGeometry x="530" y="450" width="120" height="30" as="geometry" />
        </mxCell>
        <mxCell id="Bw6eXNRRDr9AI6nDFW1N-45" value="Файл - Загрузить" style="text;html=1;align=center;verticalAlign=middle;resizable=0;points=[];autosize=1;strokeColor=none;fillColor=none;" vertex="1" parent="1">
          <mxGeometry x="580" y="420" width="120" height="30" as="geometry" />
        </mxCell>
      </root>
    </mxGraphModel>
  </diagram>
</mxfile>
